<svg width="65" height="48" viewBox="0 0 65 48" fill="none" xmlns="http://www.w3.org/2000/svg">
<path d="M63.5 45C64.3284 45 65 45.6716 65 46.5C65 47.3284 64.3284 48 63.5 48H1.5C0.671573 48 0 47.3284 0 46.5C0 45.6716 0.671573 45 1.5 45H63.5ZM63.5 22.5C64.3284 22.5 65 23.1716 65 24C65 24.8284 64.3284 25.5 63.5 25.5H1.5C0.671573 25.5 0 24.8284 0 24C0 23.1716 0.671573 22.5 1.5 22.5H63.5ZM63.5 0C64.3284 0 65 0.671573 65 1.5C65 2.32843 64.3284 3 63.5 3H1.5C0.671573 3 0 2.32843 0 1.5C0 0.671573 0.671573 0 1.5 0H63.5Z" fill="#070062"/>
</svg>
