<svg width="32" height="32" viewBox="0 0 32 32" fill="none" xmlns="http://www.w3.org/2000/svg">
<path d="M16.072 14.9988L29.9988 1.39819L30.7136 2.09644L16.7869 15.697L30.7126 29.2996L29.9968 29.9988L16.0701 16.3962L1.43042 30.6951L0.715576 29.9968L15.3552 15.698L0.715576 1.39819L1.4314 0.698975L16.072 14.9988Z" fill="#070062"/>
<path d="M16.072 14.9988L15.7227 15.3565L16.072 15.6977L16.4214 15.3565L16.072 14.9988ZM29.9988 1.39819L30.3482 1.04051L29.9988 0.699284L29.6494 1.04048L29.9988 1.39819ZM30.7136 2.09644L31.063 2.45415L31.4292 2.09647L31.063 1.73875L30.7136 2.09644ZM16.7869 15.697L16.4375 15.3393L16.0713 15.697L16.4375 16.0547L16.7869 15.697ZM30.7126 29.2996L31.062 29.6572L31.4282 29.2996L31.062 28.9419L30.7126 29.2996ZM29.9968 29.9988L29.6475 30.3565L29.9968 30.6977L30.3462 30.3565L29.9968 29.9988ZM16.0701 16.3962L16.4194 16.0385L16.0701 15.6973L15.7207 16.0385L16.0701 16.3962ZM1.43042 30.6951L1.08104 31.0528L1.43041 31.394L1.77979 31.0528L1.43042 30.6951ZM0.715576 29.9968L0.366211 29.6391L3.21865e-06 29.9968L0.366201 30.3545L0.715576 29.9968ZM15.3552 15.698L15.7046 16.0557L16.0708 15.698L15.7046 15.3403L15.3552 15.698ZM0.715576 1.39819L0.366195 1.04052L2.16961e-05 1.3982L0.366199 1.75587L0.715576 1.39819ZM1.4314 0.698975L1.78076 0.341282L1.43138 3.46303e-05L1.08202 0.341298L1.4314 0.698975ZM16.072 14.9988L16.4214 15.3565L30.3481 1.75591L29.9988 1.39819L29.6494 1.04048L15.7227 14.6411L16.072 14.9988ZM29.9988 1.39819L29.6494 1.75588L30.3642 2.45412L30.7136 2.09644L31.063 1.73875L30.3482 1.04051L29.9988 1.39819ZM30.7136 2.09644L30.3643 1.73872L16.4375 15.3393L16.7869 15.697L17.1362 16.0547L31.063 2.45415L30.7136 2.09644ZM16.7869 15.697L16.4375 16.0547L30.3633 29.6572L30.7126 29.2996L31.062 28.9419L17.1362 15.3393L16.7869 15.697ZM30.7126 29.2996L30.3633 28.9419L29.6474 29.6411L29.9968 29.9988L30.3462 30.3565L31.062 29.6572L30.7126 29.2996ZM29.9968 29.9988L30.3462 29.6411L16.4194 16.0385L16.0701 16.3962L15.7207 16.7539L29.6475 30.3565L29.9968 29.9988ZM16.0701 16.3962L15.7207 16.0385L1.08105 30.3374L1.43042 30.6951L1.77979 31.0528L16.4194 16.7539L16.0701 16.3962ZM1.43042 30.6951L1.7798 30.3374L1.06495 29.6391L0.715576 29.9968L0.366201 30.3545L1.08104 31.0528L1.43042 30.6951ZM0.715576 29.9968L1.06494 30.3545L15.7046 16.0557L15.3552 15.698L15.0059 15.3403L0.366211 29.6391L0.715576 29.9968ZM15.3552 15.698L15.7046 15.3403L1.06495 1.04051L0.715576 1.39819L0.366199 1.75587L15.0058 16.0557L15.3552 15.698ZM0.715576 1.39819L1.06496 1.75587L1.78078 1.05665L1.4314 0.698975L1.08202 0.341298L0.366195 1.04052L0.715576 1.39819ZM1.4314 0.698975L1.08203 1.05667L15.7227 15.3565L16.072 14.9988L16.4214 14.6411L1.78076 0.341282L1.4314 0.698975Z" fill="#070062"/>
</svg>
