<svg width="67" height="69" viewBox="0 0 67 69" fill="none" xmlns="http://www.w3.org/2000/svg">
<path d="M2.5 63.9099C1.11929 63.9099 0 65.0292 0 66.4099C0 67.7906 1.11929 68.9099 2.5 68.9099V66.4099V63.9099ZM0.732233 16.6421C-0.244078 17.6185 -0.244078 19.2014 0.732233 20.1777L16.6421 36.0876C17.6184 37.0639 19.2014 37.0639 20.1777 36.0876C21.154 35.1113 21.154 33.5284 20.1777 32.552L6.03553 18.4099L20.1777 4.26778C21.154 3.29147 21.154 1.70855 20.1777 0.732239C19.2014 -0.244072 17.6184 -0.244072 16.6421 0.732239L0.732233 16.6421ZM2.5 66.4099V68.9099H40.5V66.4099V63.9099H2.5V66.4099ZM40.5 18.4099V15.9099H2.5V18.4099L2.5 20.9099H40.5V18.4099ZM64.5 42.4099H67C67 27.7744 55.1355 15.9099 40.5 15.9099V18.4099V20.9099C52.3741 20.9099 62 30.5358 62 42.4099H64.5ZM40.5 66.4099V68.9099C55.1355 68.9099 67 57.0455 67 42.4099H64.5H62C62 54.284 52.3741 63.9099 40.5 63.9099V66.4099Z" fill="#EFEFFF"/>
</svg>
