<svg width="60" height="60" viewBox="0 0 60 60" fill="none" xmlns="http://www.w3.org/2000/svg">
<path d="M30 0C46.5685 0 60 13.4315 60 30C60 46.5685 46.5685 60 30 60C13.4315 60 0 46.5685 0 30C0 13.4315 13.4315 0 30 0ZM30 3.90039C15.5854 3.90039 3.90039 15.5854 3.90039 30C3.90039 44.4146 15.5854 56.0996 30 56.0996C31.3915 56.0996 32.7573 55.989 34.0898 55.7793C24.6497 51.1104 18.5001 41.4341 18.5 30.667C18.5 19.6859 24.3287 9.64489 33.6104 4.14941C32.4302 3.9861 31.2251 3.90039 30 3.90039ZM38.1367 5.19531C28.0357 9.62946 21.5 19.6201 21.5 30.667C21.5001 41.5361 28.5175 51.1622 38.8652 54.4883L38.9629 54.5195C48.9624 50.8633 56.0996 41.2655 56.0996 30C56.0996 18.4267 48.5667 8.6146 38.1367 5.19531Z" fill="#EFEFFF"/>
</svg>
