<svg width="60" height="60" viewBox="0 0 60 60" fill="none" xmlns="http://www.w3.org/2000/svg">
<path fill-rule="evenodd" clip-rule="evenodd" d="M30.499 51C31.3274 51 31.999 51.6716 31.999 52.5V58.5C31.9988 59.3283 31.3273 60 30.499 60C29.6709 59.9997 28.9992 59.3281 28.999 58.5V52.5C28.999 51.6717 29.6708 51.0003 30.499 51ZM44.001 46.123C44.5868 45.5373 45.5373 45.5373 46.123 46.123L50.3652 50.3652C50.951 50.951 50.9508 51.9005 50.3652 52.4863C49.7794 53.0721 48.8299 53.0721 48.2441 52.4863L44.001 48.2441C43.4154 47.6584 43.4155 46.7088 44.001 46.123ZM11.9648 44.79C12.5506 44.2043 13.5002 44.2043 14.0859 44.79C14.6717 45.3758 14.6717 46.3254 14.0859 46.9111L9.84375 51.1533C9.25798 51.7391 8.30845 51.7391 7.72266 51.1533C7.13687 50.5675 7.13687 49.618 7.72266 49.0322L11.9648 44.79ZM30 10C41.0455 10.0003 50 18.9545 50 30C49.9998 41.0454 41.0454 49.9997 30 50C18.9544 50 10.0002 41.0455 10 30C10 18.9543 18.9543 10 30 10ZM30 13.3994C20.8321 13.3994 13.3994 20.8321 13.3994 30C13.3996 39.1678 20.8322 46.5996 30 46.5996C39.1676 46.5993 46.5994 39.1676 46.5996 30C46.5996 20.8322 39.1677 13.3997 30 13.3994ZM7.5 28C8.3282 28.0003 9 28.6717 9 29.5C8.99981 30.3281 8.32809 30.9997 7.5 31H1.5C0.671687 31 0.000185574 30.3283 0 29.5C0 28.6716 0.671573 28 1.5 28H7.5ZM58.5 28C59.3282 28.0003 60 28.6717 60 29.5C59.9998 30.3281 59.3281 30.9997 58.5 31H52.5C51.6717 31 51.0002 30.3283 51 29.5C51 28.6716 51.6716 28 52.5 28H58.5ZM7.93848 10.0605C8.52426 9.47476 9.47476 9.47476 10.0605 10.0605L14.3027 14.3027C14.8885 14.8885 14.8883 15.838 14.3027 16.4238C13.7169 17.0096 12.7674 17.0096 12.1816 16.4238L7.93848 12.1816C7.35297 11.5959 7.35305 10.6463 7.93848 10.0605ZM48.0273 8.72754C48.6131 8.14175 49.5627 8.14175 50.1484 8.72754C50.7342 9.31333 50.7342 10.2629 50.1484 10.8486L45.9062 15.0908C45.3205 15.6766 44.3709 15.6766 43.7852 15.0908C43.1994 14.505 43.1994 13.5555 43.7852 12.9697L48.0273 8.72754ZM30.499 0C31.3274 0 31.999 0.671573 31.999 1.5V7.5C31.9988 8.32827 31.3273 9 30.499 9C29.6709 8.99974 28.9992 8.32811 28.999 7.5V1.5C28.999 0.671731 29.6708 0.000256371 30.499 0Z" fill="#070062"/>
</svg>
